<svg xmlns="http://www.w3.org/2000/svg" width="16" height="16" viewBox="0 0 16 16" fill="none">
  <path d="M10.5855 2L6.85495 2C4.8805 2 3.89327 2 3.27989 2.58579C2.6665 3.17157 2.6665 4.11438 2.6665 6L2.7373 10L10.5855 10C12.0675 10 12.8086 10 13.123 9.61702C13.21 9.51105 13.2737 9.3894 13.3103 9.25935C13.4424 8.78933 12.9978 8.22319 12.1086 7.09091C11.7387 6.6199 11.5537 6.3844 11.5208 6.11673C11.5113 6.03918 11.5113 5.96082 11.5208 5.88327C11.5537 5.6156 11.7387 5.3801 12.1086 4.90909C12.9978 3.77681 13.4424 3.21067 13.3103 2.74065C13.2737 2.6106 13.21 2.48895 13.123 2.38298C12.8086 2 12.0675 2 10.5855 2Z" stroke="currentColor" stroke-width="1.5" stroke-linecap="round" stroke-linejoin="round"/>
  <path d="M2.6665 14L2.6665 5.33333" stroke="currentColor" stroke-width="1.5" stroke-linecap="round"/>
</svg>
