<svg xmlns="http://www.w3.org/2000/svg" width="20" height="22" viewBox="0 0 20 22" fill="none">
  <path d="M9.75 0C15.0255 0 19.5 4.35955 19.5 9.67578C19.4999 12.3891 18.3499 14.6706 16.7363 16.5537C15.129 18.4294 13.0353 19.9429 11.0684 21.1465L11.0576 21.1533L11.0459 21.1592C10.6507 21.3823 10.204 21.5 9.75 21.5C9.29604 21.5 8.84933 21.3823 8.4541 21.1592L8.44141 21.1523L8.42871 21.1436C6.46881 19.9303 4.37467 18.422 2.7666 16.5518C1.15181 14.6735 0.000114203 12.3979 0 9.67578C0 4.35955 4.47451 0 9.75 0ZM9.75 5.75098C7.54111 5.75119 5.75011 7.54206 5.75 9.75098C5.75 11.96 7.54104 13.7508 9.75 13.751C11.9591 13.751 13.75 11.9601 13.75 9.75098C13.7499 7.54193 11.9591 5.75098 9.75 5.75098Z" fill="#24A79C"/>
</svg>

