<svg xmlns="http://www.w3.org/2000/svg" width="33" height="32" viewBox="0 0 33 32" fill="none">
  <path d="M19.7559 29.0858C26.0304 28.6687 31.0284 23.5998 31.4396 17.2363C31.5201 15.991 31.5201 14.7014 31.4396 13.4561C31.0284 7.09256 26.0304 2.0237 19.7559 1.60661C17.6153 1.46432 15.3804 1.46461 13.2441 1.60661C6.96958 2.0237 1.97161 7.09256 1.56036 13.4561C1.47988 14.7014 1.47988 15.991 1.56036 17.2363C1.71014 19.554 2.73515 21.6999 3.94186 23.5119C4.64251 24.7805 4.18012 26.3638 3.45032 27.7467C2.92411 28.7439 2.66101 29.2425 2.87226 29.6026C3.08351 29.9628 3.55539 29.9743 4.49914 29.9973C6.3655 30.0427 7.62403 29.5136 8.62302 28.7769C9.18961 28.3591 9.4729 28.1502 9.66815 28.1262C9.86341 28.1022 10.2477 28.2605 11.016 28.5769C11.7066 28.8614 12.5084 29.0369 13.2441 29.0858C15.3804 29.2278 17.6153 29.2281 19.7559 29.0858Z" stroke="#D3EDEB" stroke-width="3" stroke-linejoin="round"/>
  <path d="M16.4933 15.75H16.5067M22.4865 15.75H22.5M10.5 15.75H10.5135" stroke="#D3EDEB" stroke-width="3" stroke-linecap="round" stroke-linejoin="round"/>
</svg>

